<mxfile host="app.diagrams.net" modified="2024-07-23T08:31:35.412Z" agent="Mozilla/5.0 (Windows NT 10.0; Win64; x64) AppleWebKit/537.36 (KHTML, like Gecko) Chrome/126.0.0.0 Safari/537.36" version="24.7.3" etag="jrC0C6_I8N3mGfe6c-1D" type="github">
  <diagram name="Страница — 1" id="kJ0_zvkukQPBCfcYn7lC">
    <mxGraphModel>
      <root>
        <mxCell id="0" />
        <mxCell id="1" parent="0" />
      </root>
    </mxGraphModel>
  </diagram>
</mxfile>
